# 3ds Max Wavefront OBJ Exporter v0.97b - (c)2007 guruware
# File Created: 25.06.2018 16:09:12

#
# object Box008
#

v  -83.6418 193.5338 -77.8022
v  -83.6418 193.5338 77.8022
v  -79.2101 193.5338 78.9028
v  -79.2101 193.5338 -81.2190
v  71.5702 176.9420 93.5337
v  71.5702 23.0580 93.5337
v  76.9421 28.4298 93.5337
v  76.9421 171.5702 93.5337
v  93.5338 176.9420 71.5701
v  93.5338 23.0580 71.5701
v  93.5338 23.0580 -71.5701
v  93.5338 176.9420 -71.5701
v  -71.5702 176.9420 -93.5337
v  -71.5702 23.0580 -93.5337
v  -76.9421 28.4298 -93.5337
v  -76.9421 171.5702 -93.5337
v  -93.5338 176.9420 71.5701
v  -93.5338 23.0580 71.5701
v  -93.5338 28.4298 76.9421
v  -93.5338 171.5702 76.9421
v  -100.0000 5.7772 82.1851
v  -82.1849 5.7772 100.0000
v  -94.2228 17.8150 100.0000
v  -100.0000 17.8150 94.2229
v  94.2228 17.8150 100.0000
v  82.1849 5.7772 100.0000
v  100.0000 5.7772 82.1851
v  100.0000 17.8150 94.2229
v  -94.2228 17.8150 -100.0000
v  -82.1849 5.7772 -100.0000
v  -100.0000 5.7772 -82.1851
v  -100.0000 17.8150 -94.2229
v  100.0000 5.7772 -82.1851
v  82.1849 5.7772 -100.0000
v  94.2228 17.8150 -100.0000
v  100.0000 17.8150 -94.2229
v  -100.0000 194.2228 82.1851
v  -82.1849 194.2228 100.0000
v  -82.1849 200.0000 94.2229
v  -94.2228 200.0000 82.1851
v  94.2228 200.0000 82.1851
v  82.1849 200.0000 94.2229
v  82.1849 194.2228 100.0000
v  100.0000 194.2228 82.1851
v  -94.2228 200.0000 -82.1851
v  -82.1849 200.0000 -94.2229
v  -82.1849 194.2228 -100.0000
v  -100.0000 194.2228 -82.1851
v  100.0000 194.2228 -82.1851
v  82.1849 194.2228 -100.0000
v  82.1849 200.0000 -94.2229
v  94.2228 200.0000 -82.1851
v  -94.2228 0.0000 -82.1851
v  -94.2228 0.0000 82.1851
v  82.1849 0.0000 -94.2229
v  -82.1849 0.0000 -94.2229
v  94.2228 0.0000 82.1851
v  94.2228 0.0000 -82.1851
v  -82.1849 0.0000 94.2229
v  82.1849 0.0000 94.2229
v  94.2228 182.1850 100.0000
v  100.0000 182.1850 94.2229
v  -94.2228 182.1850 100.0000
v  -100.0000 182.1850 94.2229
v  100.0000 182.1850 -94.2229
v  94.2228 182.1850 -100.0000
v  -94.2228 182.1850 -100.0000
v  -100.0000 182.1850 -94.2229
v  83.6418 193.5338 -77.8022
v  78.7846 193.5338 -81.2190
v  78.7846 193.5338 78.9028
v  83.6418 193.5338 77.8022
v  -77.8021 200.0000 83.6418
v  77.8021 200.0000 83.6418
v  83.6418 200.0000 77.8022
v  83.6418 200.0000 -77.8022
v  77.8021 200.0000 -83.6418
v  -77.8021 200.0000 -83.6418
v  -83.6418 200.0000 -77.8022
v  -83.6418 200.0000 77.8022
v  83.6418 22.1979 100.0000
v  83.6418 177.8021 100.0000
v  77.8021 183.6418 100.0000
v  -77.8021 183.6418 100.0000
v  -83.6418 177.8021 100.0000
v  -83.6418 22.1979 100.0000
v  -77.8021 16.3582 100.0000
v  77.8021 16.3582 100.0000
v  100.0000 22.1979 -83.6418
v  100.0000 177.8021 -83.6418
v  100.0000 183.6418 -77.8022
v  100.0000 183.6418 77.8022
v  100.0000 177.8021 83.6418
v  100.0000 22.1979 83.6418
v  100.0000 16.3582 77.8022
v  100.0000 16.3582 -77.8022
v  -83.6418 22.1979 -100.0000
v  -83.6418 177.8021 -100.0000
v  -77.8021 183.6418 -100.0000
v  77.8021 183.6418 -100.0000
v  83.6418 177.8021 -100.0000
v  83.6418 22.1979 -100.0000
v  77.8021 16.3582 -100.0000
v  -77.8021 16.3582 -100.0000
v  -100.0000 16.3582 77.8022
v  -100.0000 22.1979 83.6418
v  -100.0000 177.8021 83.6418
v  -100.0000 183.6418 77.8022
v  -100.0000 183.6418 -77.8022
v  -100.0000 177.8021 -83.6418
v  -100.0000 22.1979 -83.6418
v  -100.0000 16.3582 -77.8022
v  -71.5702 176.9420 93.5337
v  -76.9421 171.5702 93.5337
v  -76.9421 28.4298 93.5337
v  -71.5702 23.0580 93.5337
v  93.5338 28.4298 -76.9421
v  93.5338 171.5702 -76.9421
v  93.5338 171.5702 76.9421
v  93.5338 28.4298 76.9421
v  71.5702 176.9420 -93.5337
v  76.9421 171.5702 -93.5337
v  76.9421 28.4298 -93.5337
v  71.5702 23.0580 -93.5337
v  -93.5338 176.9420 -71.5701
v  -93.5338 171.5702 -76.9421
v  -93.5338 28.4298 -76.9421
v  -93.5338 23.0580 -71.5701
v  -79.6949 6.7510 -76.1672
v  79.6949 6.7510 -76.1672
v  79.6949 6.7510 76.1672
v  -79.6949 6.7510 76.1672
v  76.1673 6.7510 79.6948
v  -76.1673 6.7510 79.6948
v  -76.1673 6.7510 -79.6948
v  76.1673 6.7510 -79.6948
v  -84.3976 0.0000 78.1152
v  -84.3976 0.0000 -78.1152
v  -78.1152 0.0000 -84.3975
v  78.1152 0.0000 -84.3975
v  84.3976 0.0000 -78.1152
v  84.3976 0.0000 78.1152
v  78.1152 0.0000 84.3975
v  -78.1152 0.0000 84.3975
# 144 vertices

vn 0.0000 1.0000 -0.0000
vn 0.0000 0.0000 1.0000
vn 1.0000 0.0000 -0.0000
vn 0.0000 0.0000 -1.0000
vn -1.0000 0.0000 -0.0000
vn -0.6655 -0.6635 0.3419
vn -0.3487 -0.6648 0.6607
vn -0.6663 -0.3469 0.6601
vn 0.6663 -0.3469 0.6601
vn 0.3487 -0.6648 0.6607
vn 0.6655 -0.6635 0.3419
vn -0.6663 -0.3469 -0.6601
vn -0.3487 -0.6648 -0.6607
vn -0.6655 -0.6635 -0.3419
vn 0.6655 -0.6635 -0.3419
vn 0.3487 -0.6648 -0.6607
vn 0.6663 -0.3469 -0.6601
vn -0.6653 0.6638 0.3418
vn -0.3486 0.6650 0.6605
vn 0.6653 0.6638 0.3418
vn 0.3486 0.6650 0.6605
vn -0.6653 0.6638 -0.3418
vn -0.3486 0.6650 -0.6605
vn 0.6653 0.6638 -0.3418
vn 0.3486 0.6650 -0.6605
vn 0.6663 0.3469 0.6601
vn -0.6663 0.3469 0.6601
vn 0.6663 0.3469 -0.6601
vn -0.6663 0.3469 -0.6601
vn 0.0000 0.5912 -0.8066
vn -0.5275 0.2576 -0.8096
vn -0.6506 0.0912 0.7539
vn 0.0000 0.3538 0.9353
vn 0.6709 0.0662 0.7386
vn 0.5432 0.2365 -0.8056
vn -0.7009 0.0000 0.7132
vn -0.4123 -0.4123 0.8124
vn 0.0000 -0.7001 0.7140
vn 0.4123 -0.4123 0.8124
vn 0.7009 0.0000 0.7132
vn 0.4124 0.4119 0.8126
vn 0.0000 0.7001 0.7140
vn -0.4124 0.4119 0.8126
vn 0.7253 0.0000 0.6884
vn 0.8145 -0.4072 0.4133
vn 0.7200 -0.6940 -0.0000
vn 0.8145 -0.4072 -0.4133
vn 0.7253 0.0000 -0.6884
vn 0.8146 0.4068 -0.4134
vn 0.7200 0.6940 -0.0000
vn 0.8146 0.4068 0.4134
vn 0.7009 0.0000 -0.7132
vn 0.4123 -0.4123 -0.8124
vn 0.0000 -0.7001 -0.7140
vn -0.4123 -0.4123 -0.8124
vn -0.7009 0.0000 -0.7132
vn -0.4124 0.4119 -0.8126
vn 0.0000 0.7001 -0.7140
vn 0.4124 0.4119 -0.8126
vn -0.8146 0.4068 -0.4134
vn -0.7253 0.0000 -0.6884
vn -0.8145 -0.4072 -0.4133
vn -0.7200 -0.6940 -0.0000
vn -0.8145 -0.4072 0.4133
vn -0.7253 0.0000 0.6884
vn -0.8146 0.4068 0.4134
vn -0.7200 0.6940 -0.0000
vn 0.0000 -1.0000 -0.0000
vn 0.8197 -0.5727 -0.0000
vn 0.5781 -0.5697 0.5842
vn 0.0000 -0.5670 0.8237
vn -0.5781 -0.5697 0.5842
vn -0.8197 -0.5727 -0.0000
vn -0.5781 -0.5697 -0.5842
vn 0.0000 -0.5670 -0.8237
vn 0.5781 -0.5697 -0.5842
# 76 vertex normals

vt 0.2899 0.3358 0.0000
vt 0.0639 0.3436 0.0000
vt 0.0594 0.3370 0.0000
vt 0.2947 0.3298 0.0000
vt 0.9578 0.4071 0.0000
vt 0.7097 0.4109 0.0000
vt 0.7181 0.4020 0.0000
vt 0.9491 0.3985 0.0000
vt 0.2821 0.6838 0.0000
vt 0.0342 0.6860 0.0000
vt 0.0337 0.4517 0.0000
vt 0.2816 0.4496 0.0000
vt 0.3614 0.7176 0.0000
vt 0.3622 0.9658 0.0000
vt 0.3534 0.9573 0.0000
vt 0.3526 0.7261 0.0000
vt 0.6177 0.6476 0.0000
vt 0.6174 0.3996 0.0000
vt 0.6262 0.4081 0.0000
vt 0.6264 0.6391 0.0000
vt 0.6728 0.3497 0.0000
vt 0.7051 0.3167 0.0000
vt 0.7135 0.3468 0.0000
vt 0.7031 0.3575 0.0000
vt 0.7112 0.0109 0.0000
vt 0.7035 0.0410 0.0000
vt 0.6707 0.0089 0.0000
vt 0.7006 0.0005 0.0000
vt 0.3511 0.3474 0.0000
vt 0.3588 0.3173 0.0000
vt 0.3917 0.3495 0.0000
vt 0.3617 0.3578 0.0000
vt 0.3895 0.0086 0.0000
vt 0.3572 0.0416 0.0000
vt 0.3488 0.0115 0.0000
vt 0.3593 0.0008 0.0000
vt 0.0445 0.3853 0.0000
vt 0.0088 0.3511 0.0000
vt 0.0245 0.3483 0.0000
vt 0.0476 0.3710 0.0000
vt 0.0451 0.0272 0.0000
vt 0.0241 0.0496 0.0000
vt 0.0088 0.0466 0.0000
vt 0.0425 0.0130 0.0000
vt 0.3051 0.3614 0.0000
vt 0.3249 0.3394 0.0000
vt 0.3396 0.3419 0.0000
vt 0.3081 0.3753 0.0000
vt 0.3057 0.0154 0.0000
vt 0.3387 0.0496 0.0000
vt 0.3236 0.0519 0.0000
vt 0.3023 0.0293 0.0000
vt 0.3945 0.3351 0.0000
vt 0.6703 0.3351 0.0000
vt 0.3714 0.0445 0.0000
vt 0.3732 0.3147 0.0000
vt 0.6678 0.0232 0.0000
vt 0.3920 0.0232 0.0000
vt 0.6909 0.3138 0.0000
vt 0.6891 0.0436 0.0000
vt 0.2948 0.7386 0.0000
vt 0.0228 0.7411 0.0000
vt 0.0226 0.7276 0.0000
vt 0.2947 0.7250 0.0000
vt 0.6722 0.3873 0.0000
vt 0.6727 0.6594 0.0000
vt 0.6592 0.6594 0.0000
vt 0.6587 0.3873 0.0000
vt 0.2931 0.4079 0.0000
vt 0.0210 0.4105 0.0000
vt 0.0209 0.3970 0.0000
vt 0.2930 0.3944 0.0000
vt 0.3286 0.6586 0.0000
vt 0.3281 0.3866 0.0000
vt 0.3416 0.3865 0.0000
vt 0.3421 0.6586 0.0000
vt 0.2866 0.0563 0.0000
vt 0.2925 0.0626 0.0000
vt 0.0569 0.0605 0.0000
vt 0.0610 0.0532 0.0000
vt 0.0124 0.3947 0.0000
vt 0.0008 0.3836 0.0000
vt 0.0005 0.0156 0.0000
vt 0.0114 0.0046 0.0000
vt 0.3368 0.0077 0.0000
vt 0.3475 0.0187 0.0000
vt 0.3484 0.3716 0.0000
vt 0.3383 0.3824 0.0000
vt 0.0442 0.3403 0.0000
vt 0.0429 0.0580 0.0000
vt 0.0538 0.0449 0.0000
vt 0.2929 0.0457 0.0000
vt 0.3042 0.0591 0.0000
vt 0.3067 0.3314 0.0000
vt 0.2964 0.3443 0.0000
vt 0.0568 0.3538 0.0000
vt 0.7046 0.3875 0.0000
vt 0.6968 0.3698 0.0000
vt 0.9690 0.3654 0.0000
vt 0.9615 0.3833 0.0000
vt 0.9905 0.3859 0.0000
vt 0.9726 0.3938 0.0000
vt 0.9932 0.6614 0.0000
vt 0.9752 0.6538 0.0000
vt 0.9728 0.6827 0.0000
vt 0.9649 0.6650 0.0000
vt 0.7005 0.6871 0.0000
vt 0.7080 0.6692 0.0000
vt 0.6790 0.6666 0.0000
vt 0.6970 0.6587 0.0000
vt 0.6763 0.3911 0.0000
vt 0.6943 0.3986 0.0000
vt 0.0288 0.4283 0.0000
vt 0.2854 0.4258 0.0000
vt 0.3144 0.4286 0.0000
vt 0.2964 0.4363 0.0000
vt 0.3152 0.7038 0.0000
vt 0.2973 0.6962 0.0000
vt 0.2869 0.7073 0.0000
vt 0.0303 0.7097 0.0000
vt 0.0013 0.7069 0.0000
vt 0.0193 0.6992 0.0000
vt 0.0005 0.4317 0.0000
vt 0.0184 0.4393 0.0000
vt 0.3387 0.9705 0.0000
vt 0.3208 0.9782 0.0000
vt 0.3198 0.7059 0.0000
vt 0.3376 0.7136 0.0000
vt 0.3406 0.6846 0.0000
vt 0.3482 0.7027 0.0000
vt 0.6160 0.6853 0.0000
vt 0.6083 0.7032 0.0000
vt 0.6371 0.7060 0.0000
vt 0.6193 0.7137 0.0000
vt 0.6382 0.9783 0.0000
vt 0.6204 0.9705 0.0000
vt 0.6174 0.9995 0.0000
vt 0.6098 0.9815 0.0000
vt 0.3420 0.9988 0.0000
vt 0.3497 0.9809 0.0000
vt 0.6299 0.3845 0.0000
vt 0.6377 0.3666 0.0000
vt 0.6409 0.3950 0.0000
vt 0.6414 0.6516 0.0000
vt 0.6384 0.6806 0.0000
vt 0.6308 0.6625 0.0000
vt 0.3631 0.6793 0.0000
vt 0.3709 0.6615 0.0000
vt 0.3599 0.6510 0.0000
vt 0.3594 0.3943 0.0000
vt 0.3624 0.3654 0.0000
vt 0.3700 0.3834 0.0000
vt 0.9598 0.6416 0.0000
vt 0.9514 0.6505 0.0000
vt 0.7204 0.6540 0.0000
vt 0.7117 0.6454 0.0000
vt 0.0421 0.4429 0.0000
vt 0.2730 0.4409 0.0000
vt 0.2736 0.6927 0.0000
vt 0.0427 0.6946 0.0000
vt 0.5958 0.7184 0.0000
vt 0.6046 0.7269 0.0000
vt 0.6053 0.9580 0.0000
vt 0.5966 0.9665 0.0000
vt 0.3834 0.6463 0.0000
vt 0.3746 0.6378 0.0000
vt 0.3744 0.4069 0.0000
vt 0.3831 0.3984 0.0000
vt 0.4081 0.3052 0.0000
vt 0.4065 0.0529 0.0000
vt 0.6542 0.0531 0.0000
vt 0.6558 0.3054 0.0000
vt 0.6600 0.0585 0.0000
vt 0.6615 0.3001 0.0000
vt 0.4024 0.2998 0.0000
vt 0.4008 0.0582 0.0000
vt 0.6629 0.3183 0.0000
vt 0.4020 0.3186 0.0000
vt 0.3897 0.3072 0.0000
vt 0.3877 0.0520 0.0000
vt 0.3994 0.0400 0.0000
vt 0.6603 0.0397 0.0000
vt 0.6726 0.0511 0.0000
vt 0.6746 0.3063 0.0000
# 184 texture coords

g Box008
f 1/1/1 2/2/1 3/3/1 
f 3/3/1 4/4/1 1/1/1 
f 5/5/2 6/6/2 7/7/2 
f 7/7/2 8/8/2 5/5/2 
f 9/9/3 10/10/3 11/11/3 
f 11/11/3 12/12/3 9/9/3 
f 13/13/4 14/14/4 15/15/4 
f 15/15/4 16/16/4 13/13/4 
f 17/17/5 18/18/5 19/19/5 
f 19/19/5 20/20/5 17/17/5 
f 21/21/6 22/22/7 23/23/8 
f 23/23/8 24/24/8 21/21/6 
f 25/25/9 26/26/10 27/27/11 
f 27/27/11 28/28/9 25/25/9 
f 29/29/12 30/30/13 31/31/14 
f 31/31/14 32/32/12 29/29/12 
f 33/33/15 34/34/16 35/35/17 
f 35/35/17 36/36/17 33/33/15 
f 37/37/18 38/38/19 39/39/19 
f 39/39/19 40/40/18 37/37/18 
f 41/41/20 42/42/21 43/43/21 
f 43/43/21 44/44/20 41/41/20 
f 45/45/22 46/46/23 47/47/23 
f 47/47/23 48/48/22 45/45/22 
f 49/49/24 50/50/25 51/51/25 
f 51/51/25 52/52/24 49/49/24 
f 53/53/14 54/54/6 21/21/6 
f 21/21/6 31/31/14 53/53/14 
f 55/55/16 56/56/13 30/30/13 
f 30/30/13 34/34/16 55/55/16 
f 57/57/11 58/58/15 33/33/15 
f 33/33/15 27/27/11 57/57/11 
f 59/59/7 60/60/10 26/26/10 
f 26/26/10 22/22/7 59/59/7 
f 42/42/21 39/39/19 38/38/19 
f 38/38/19 43/43/21 42/42/21 
f 52/52/24 41/41/20 44/44/20 
f 44/44/20 49/49/24 52/52/24 
f 46/46/23 51/51/25 50/50/25 
f 50/50/25 47/47/23 46/46/23 
f 40/40/18 45/45/22 48/48/22 
f 48/48/22 37/37/18 40/40/18 
f 61/61/26 25/62/9 28/63/9 
f 28/63/9 62/64/26 61/61/26 
f 23/65/8 63/66/27 64/67/27 
f 64/67/27 24/68/8 23/65/8 
f 65/69/28 36/70/17 35/71/17 
f 35/71/17 66/72/28 65/69/28 
f 67/73/29 29/74/12 32/75/12 
f 32/75/12 68/76/29 67/73/29 
f 69/77/1 70/78/1 71/79/1 
f 71/79/1 72/80/1 69/77/1 
f 4/4/1 3/3/1 71/79/1 
f 71/79/1 70/78/1 4/4/1 
f 38/38/19 37/37/18 64/81/27 
f 64/81/27 63/82/27 38/38/19 
f 44/44/20 43/43/21 61/83/26 
f 61/83/26 62/84/26 44/44/20 
f 50/50/25 49/49/24 65/85/28 
f 65/85/28 66/86/28 50/50/25 
f 48/48/22 47/47/23 67/87/29 
f 67/87/29 68/88/29 48/48/22 
f 34/34/16 33/33/15 58/58/15 
f 58/58/15 55/55/16 34/34/16 
f 31/31/14 30/30/13 56/56/13 
f 56/56/13 53/53/14 31/31/14 
f 22/22/7 21/21/6 54/54/6 
f 54/54/6 59/59/7 22/22/7 
f 27/27/11 26/26/10 60/60/10 
f 60/60/10 57/57/11 27/27/11 
f 73/89/1 39/39/1 42/42/1 
f 42/42/1 74/90/1 73/89/1 
f 74/90/1 42/42/1 41/41/1 
f 41/41/1 75/91/1 74/90/1 
f 75/91/1 41/41/1 52/52/1 
f 52/52/1 76/92/1 75/91/1 
f 76/92/1 52/52/1 51/51/1 
f 51/51/1 77/93/1 76/92/1 
f 77/93/1 51/51/1 46/46/1 
f 46/46/1 78/94/1 77/93/1 
f 78/94/1 46/46/1 45/45/1 
f 45/45/1 79/95/1 78/94/1 
f 79/95/1 45/45/1 40/40/1 
f 40/40/1 80/96/1 79/95/1 
f 80/96/1 40/40/1 39/39/1 
f 39/39/1 73/89/1 80/96/1 
f 81/97/2 25/98/2 61/99/2 
f 61/99/2 82/100/2 81/97/2 
f 82/100/2 61/99/2 43/101/2 
f 43/101/2 83/102/2 82/100/2 
f 83/102/2 43/101/2 38/103/2 
f 38/103/2 84/104/2 83/102/2 
f 84/104/2 38/103/2 63/105/2 
f 63/105/2 85/106/2 84/104/2 
f 85/106/2 63/105/2 23/107/2 
f 23/107/2 86/108/2 85/106/2 
f 86/108/2 23/107/2 22/109/2 
f 22/109/2 87/110/2 86/108/2 
f 87/110/2 22/109/2 26/111/2 
f 26/111/2 88/112/2 87/110/2 
f 88/112/2 26/111/2 25/98/2 
f 25/98/2 81/97/2 88/112/2 
f 89/113/3 36/70/3 65/69/3 
f 65/69/3 90/114/3 89/113/3 
f 90/114/3 65/69/3 49/115/3 
f 49/115/3 91/116/3 90/114/3 
f 91/116/3 49/115/3 44/117/3 
f 44/117/3 92/118/3 91/116/3 
f 92/118/3 44/117/3 62/64/3 
f 62/64/3 93/119/3 92/118/3 
f 93/119/3 62/64/3 28/63/3 
f 28/63/3 94/120/3 93/119/3 
f 94/120/3 28/63/3 27/121/3 
f 27/121/3 95/122/3 94/120/3 
f 95/122/3 27/121/3 33/123/3 
f 33/123/3 96/124/3 95/122/3 
f 96/124/3 33/123/3 36/70/3 
f 36/70/3 89/113/3 96/124/3 
f 97/125/4 29/126/4 67/127/4 
f 67/127/4 98/128/4 97/125/4 
f 98/128/4 67/127/4 47/129/4 
f 47/129/4 99/130/4 98/128/4 
f 99/130/4 47/129/4 50/131/4 
f 50/131/4 100/132/4 99/130/4 
f 100/132/4 50/131/4 66/133/4 
f 66/133/4 101/134/4 100/132/4 
f 101/134/4 66/133/4 35/135/4 
f 35/135/4 102/136/4 101/134/4 
f 102/136/4 35/135/4 34/137/4 
f 34/137/4 103/138/4 102/136/4 
f 103/138/4 34/137/4 30/139/4 
f 30/139/4 104/140/4 103/138/4 
f 104/140/4 30/139/4 29/126/4 
f 29/126/4 97/125/4 104/140/4 
f 105/141/5 21/142/5 24/68/5 
f 24/68/5 106/143/5 105/141/5 
f 106/143/5 24/68/5 64/67/5 
f 64/67/5 107/144/5 106/143/5 
f 107/144/5 64/67/5 37/145/5 
f 37/145/5 108/146/5 107/144/5 
f 108/146/5 37/145/5 48/147/5 
f 48/147/5 109/148/5 108/146/5 
f 109/148/5 48/147/5 68/76/5 
f 68/76/5 110/149/5 109/148/5 
f 110/149/5 68/76/5 32/75/5 
f 32/75/5 111/150/5 110/149/5 
f 111/150/5 32/75/5 31/151/5 
f 31/151/5 112/152/5 111/150/5 
f 112/152/5 31/151/5 21/142/5 
f 21/142/5 105/141/5 112/152/5 
f 3/3/30 73/89/30 74/90/30 
f 74/90/30 71/79/30 3/3/30 
f 71/79/31 74/90/31 75/91/31 
f 75/91/31 72/80/31 71/79/31 
f 72/80/5 75/91/5 76/92/5 
f 76/92/5 69/77/5 72/80/5 
f 70/78/32 69/77/32 76/92/32 
f 76/92/32 77/93/32 70/78/32 
f 70/78/33 77/93/33 78/94/33 
f 78/94/33 4/4/33 70/78/33 
f 4/4/34 78/94/34 79/95/34 
f 79/95/34 1/1/34 4/4/34 
f 1/1/3 79/95/3 80/96/3 
f 80/96/3 2/2/3 1/1/3 
f 3/3/35 2/2/35 80/96/35 
f 80/96/35 73/89/35 3/3/35 
f 7/7/36 81/97/36 82/100/36 
f 82/100/36 8/8/36 7/7/36 
f 8/8/37 82/100/37 83/102/37 
f 83/102/37 5/5/37 8/8/37 
f 5/5/38 83/102/38 84/104/38 
f 84/104/38 113/153/38 5/5/38 
f 113/153/39 84/104/39 85/106/39 
f 85/106/39 114/154/39 113/153/39 
f 114/154/40 85/106/40 86/108/40 
f 86/108/40 115/155/40 114/154/40 
f 115/155/41 86/108/41 87/110/41 
f 87/110/41 116/156/41 115/155/41 
f 116/156/42 87/110/42 88/112/42 
f 88/112/42 6/6/42 116/156/42 
f 6/6/43 88/112/43 81/97/43 
f 81/97/43 7/7/43 6/6/43 
f 117/157/44 89/113/44 90/114/44 
f 90/114/44 118/158/44 117/157/44 
f 118/158/45 90/114/45 91/116/45 
f 91/116/45 12/12/45 118/158/45 
f 12/12/46 91/116/46 92/118/46 
f 92/118/46 9/9/46 12/12/46 
f 9/9/47 92/118/47 93/119/47 
f 93/119/47 119/159/47 9/9/47 
f 119/159/48 93/119/48 94/120/48 
f 94/120/48 120/160/48 119/159/48 
f 120/160/49 94/120/49 95/122/49 
f 95/122/49 10/10/49 120/160/49 
f 10/10/50 95/122/50 96/124/50 
f 96/124/50 11/11/50 10/10/50 
f 11/11/51 96/124/51 89/113/51 
f 89/113/51 117/157/51 11/11/51 
f 15/15/52 97/125/52 98/128/52 
f 98/128/52 16/16/52 15/15/52 
f 16/16/53 98/128/53 99/130/53 
f 99/130/53 13/13/53 16/16/53 
f 13/13/54 99/130/54 100/132/54 
f 100/132/54 121/161/54 13/13/54 
f 121/161/55 100/132/55 101/134/55 
f 101/134/55 122/162/55 121/161/55 
f 122/162/56 101/134/56 102/136/56 
f 102/136/56 123/163/56 122/162/56 
f 123/163/57 102/136/57 103/138/57 
f 103/138/57 124/164/57 123/163/57 
f 124/164/58 103/138/58 104/140/58 
f 104/140/58 14/14/58 124/164/58 
f 14/14/59 104/140/59 97/125/59 
f 97/125/59 15/15/59 14/14/59 
f 18/18/60 105/141/60 106/143/60 
f 106/143/60 19/19/60 18/18/60 
f 19/19/61 106/143/61 107/144/61 
f 107/144/61 20/20/61 19/19/61 
f 20/20/62 107/144/62 108/146/62 
f 108/146/62 17/17/62 20/20/62 
f 17/17/63 108/146/63 109/148/63 
f 109/148/63 125/165/63 17/17/63 
f 125/165/64 109/148/64 110/149/64 
f 110/149/64 126/166/64 125/165/64 
f 126/166/65 110/149/65 111/150/65 
f 111/150/65 127/167/65 126/166/65 
f 127/167/66 111/150/66 112/152/66 
f 112/152/66 128/168/66 127/167/66 
f 128/168/67 112/152/67 105/141/67 
f 105/141/67 18/18/67 128/168/67 
f 128/168/5 125/165/5 126/166/5 
f 126/166/5 127/167/5 128/168/5 
f 18/18/5 17/17/5 125/165/5 
f 125/165/5 128/168/5 18/18/5 
f 124/164/4 121/161/4 122/162/4 
f 122/162/4 123/163/4 124/164/4 
f 14/14/4 13/13/4 121/161/4 
f 121/161/4 124/164/4 14/14/4 
f 10/10/3 9/9/3 119/159/3 
f 119/159/3 120/160/3 10/10/3 
f 12/12/3 11/11/3 117/157/3 
f 117/157/3 118/158/3 12/12/3 
f 6/6/2 5/5/2 113/153/2 
f 113/153/2 116/156/2 6/6/2 
f 116/156/2 113/153/2 114/154/2 
f 114/154/2 115/155/2 116/156/2 
f 129/169/68 130/170/68 131/171/68 
f 131/171/68 132/172/68 129/169/68 
f 132/172/68 131/171/68 133/173/68 
f 133/173/68 134/174/68 132/172/68 
f 135/175/68 136/176/68 130/170/68 
f 130/170/68 129/169/68 135/175/68 
f 137/177/68 54/54/68 53/53/68 
f 53/53/68 138/178/68 137/177/68 
f 138/178/68 53/53/68 56/56/68 
f 56/56/68 139/179/68 138/178/68 
f 139/179/68 56/56/68 55/55/68 
f 55/55/68 140/180/68 139/179/68 
f 140/180/68 55/55/68 58/58/68 
f 58/58/68 141/181/68 140/180/68 
f 141/181/68 58/58/68 57/57/68 
f 57/57/68 142/182/68 141/181/68 
f 142/182/68 57/57/68 60/60/68 
f 60/60/68 143/183/68 142/182/68 
f 143/183/68 60/60/68 59/59/68 
f 59/59/68 144/184/68 143/183/68 
f 144/184/68 59/59/68 54/54/68 
f 54/54/68 137/177/68 144/184/68 
f 132/172/69 137/177/69 138/178/69 
f 138/178/69 129/169/69 132/172/69 
f 129/169/70 138/178/70 139/179/70 
f 139/179/70 135/175/70 129/169/70 
f 135/175/71 139/179/71 140/180/71 
f 140/180/71 136/176/71 135/175/71 
f 136/176/72 140/180/72 141/181/72 
f 141/181/72 130/170/72 136/176/72 
f 130/170/73 141/181/73 142/182/73 
f 142/182/73 131/171/73 130/170/73 
f 131/171/74 142/182/74 143/183/74 
f 143/183/74 133/173/74 131/171/74 
f 133/173/75 143/183/75 144/184/75 
f 144/184/75 134/174/75 133/173/75 
f 134/174/76 144/184/76 137/177/76 
f 137/177/76 132/172/76 134/174/76 
# 284 faces

